# xmcd
#
# Track frame offsets: 
#        150
#        13442
#        26401
#        38158
#        52757
#        64565
#        76372
#        89133
#        102376
#        113818
#        126587
#        140278
#        153480
#        165791
#        178096
#        190708
#        204429
#        216780
#        229134
#        240988
#
# Disc length: 3387 seconds
#
# Revision: 0
# Processed by: cddbd v1.5.2PL0 Copyright (c) Steve Scherf et al.
# Submitted via: ExactAudioCopyFreeDBPlugin 1.0
#
DISCID=090d3914
DTITLE=Ruth Brown - The Essential Recordings CD1
DYEAR=2016
DGENRE=R&B
TTITLE0=He Treats Your Daughter Mean
TTITLE1=Teardrops From My Eyes
TTITLE2=So Long
TTITLE3=5-10-15 Hours
TTITLE4=Sentimental Journey
TTITLE5=i'll Wait For You
TTITLE6=I Know
TTITLE7=Daddy Daddy
TTITLE8=Wild, Wild Young Man
TTITLE9=Mend Your Ways
TTITLE10=Love Contest 
TTITLE11=Oh, What a Dream
TTITLE12=Mambo Baby 
TTITLE13=Bye Bye Young Man
TTITLE14=Ever Since You Been Gone
TTITLE15=I can See Everybody's baby
TTITLE16=As Long as I'm Moving
TTITLE17=It's Love Baby (24 Hours a Day)
TTITLE18=What I'd Say
TTITLE19=Love Has Joined Us Together
EXTD=
EXTT0=
EXTT1=
EXTT2=
EXTT3=
EXTT4=
EXTT5=
EXTT6=
EXTT7=
EXTT8=
EXTT9=
EXTT10=
EXTT11=
EXTT12=
EXTT13=
EXTT14=
EXTT15=
EXTT16=
EXTT17=
EXTT18=
EXTT19=
PLAYORDER=
